<?xml version="1.0" standalone="no"?>
<!DOCTYPE svg PUBLIC "-//W3C//DTD SVG 20010904//EN"
 "http://www.w3.org/TR/2001/REC-SVG-20010904/DTD/svg10.dtd">
<svg version="1.0" xmlns="http://www.w3.org/2000/svg"
 width="512.000000pt" height="512.000000pt" viewBox="0 0 512.000000 512.000000"
 preserveAspectRatio="xMidYMid meet">

<g transform="translate(0.000000,512.000000) scale(0.100000,-0.100000)"
fill="#ff6900" stroke="none">
<path d="M2418 4624 c-50 -27 -58 -58 -58 -229 l0 -155 -514 0 c-554 0 -603
-4 -726 -53 -101 -41 -171 -88 -255 -172 -117 -117 -181 -236 -211 -391 -17
-92 -20 -631 -3 -782 70 -650 454 -1202 1034 -1487 270 -133 542 -195 860
-195 196 0 215 18 215 200 0 123 -12 160 -58 183 -18 10 -84 16 -207 20 -257
9 -435 51 -636 152 -112 57 -151 81 -254 161 -309 239 -515 609 -556 1002 -6
62 -9 230 -7 402 l3 295 27 55 c35 71 107 143 178 178 l55 27 1231 3 c1190 2
1233 2 1293 -17 110 -34 198 -121 232 -232 17 -54 19 -94 19 -367 0 -224 -5
-334 -16 -407 -26 -175 -27 -184 -14 -214 16 -40 39 -53 153 -90 114 -36 131
-37 174 -11 35 21 50 60 79 206 24 120 32 799 11 911 -31 161 -94 279 -212
398 -84 84 -154 131 -255 172 -123 49 -172 53 -726 53 l-514 0 0 155 c0 173
-8 203 -60 230 -40 21 -243 20 -282 -1z"/>
<path d="M1845 3191 c-92 -24 -173 -90 -215 -176 -34 -69 -35 -198 -2 -265 34
-71 75 -114 144 -151 58 -31 70 -34 148 -33 72 0 93 4 136 26 75 40 107 70
145 140 31 58 34 70 34 148 0 78 -3 90 -34 148 -57 104 -144 160 -260 167 -36
2 -79 1 -96 -4z"/>
<path d="M3125 3191 c-92 -24 -173 -90 -215 -176 -34 -69 -35 -198 -2 -265 34
-71 75 -114 144 -151 58 -31 70 -34 148 -33 72 0 93 4 136 26 75 40 107 70
145 140 31 58 34 70 34 148 0 78 -3 90 -34 148 -57 104 -144 160 -260 167 -36
2 -79 1 -96 -4z"/>
<path d="M3976 2058 c-8 -13 -49 -111 -92 -218 -130 -326 -164 -360 -490 -490
-115 -46 -215 -88 -222 -93 -7 -6 -12 -21 -10 -35 3 -22 24 -33 208 -106 245
-98 252 -102 319 -162 81 -73 113 -130 202 -356 71 -180 86 -209 106 -214 14
-4 28 -3 33 2 5 5 45 101 90 214 88 222 116 273 182 336 71 68 114 91 331 176
204 80 234 98 221 132 -3 8 -102 53 -222 101 -232 91 -304 134 -370 217 -46
58 -68 104 -147 308 -84 215 -104 242 -139 188z"/>
</g>
</svg>
